<svg id="icon_star_line_14" xmlns="http://www.w3.org/2000/svg" width="24" height="24" viewBox="0 0 24 24">
  <rect id="사각형_223" data-name="사각형 223" width="24" height="24" fill="none"/>
  <path id="패스_57" data-name="패스 57" d="M12.631,1.7l2.447,5.487,5.974.631a1.179,1.179,0,0,1,.666,2.048l-4.463,4.022L18.5,19.765a1.179,1.179,0,0,1-1.742,1.266l-5.2-3-5.2,3a1.179,1.179,0,0,1-1.742-1.266l1.245-5.877L1.391,9.866a1.179,1.179,0,0,1,.665-2.048l5.975-.631L10.478,1.7A1.179,1.179,0,0,1,12.631,1.7Z" transform="translate(0.354 0.6)" stroke="#070303" stroke-linejoin="round" stroke-width="1"/>
</svg>
